<svg aria-hidden="true" style="position:absolute;width:0;height:0;overflow:hidden" xmlns="http://www.w3.org/2000/svg">
  <defs>
    <symbol id="entypo-social_pinterest-with-circle" viewBox="0 0 32 32">
      <path d="M16 .64C7.517.64.64 7.517.64 16S7.517 31.36 16 31.36 31.36 24.483 31.36 16 24.483.64 16 .64zm1.051 19c-.986-.075-1.398-.563-2.17-1.03-.424 2.226-.942 4.36-2.478 5.475-.475-3.366.694-5.891 1.238-8.574-.926-1.56.11-4.698 2.066-3.926 2.405.954-2.083 5.8.93 6.406 3.146.63 4.43-5.459 2.48-7.437-2.819-2.859-8.203-.066-7.541 4.027.16 1 1.195 1.304.413 2.685-1.803-.4-2.342-1.822-2.272-3.718.11-3.104 2.789-5.278 5.474-5.578 3.397-.378 6.584 1.246 7.026 4.443.494 3.606-1.534 7.509-5.165 7.227z"/>
    </symbol>
    <symbol id="entypo-social_youtube-with-circle" viewBox="0 0 32 32">
      <path d="m18.565 15.733-3.594-1.677c-.314-.146-.571.018-.571.365v3.158c0 .347.258.51.571.365l3.592-1.677c.315-.147.315-.387.002-.534zM16 .64C7.517.64.64 7.517.64 16S7.517 31.36 16 31.36 31.36 24.483 31.36 16 24.483.64 16 .64zm0 21.6c-7.862 0-8-.709-8-6.24s.138-6.24 8-6.24 8 .709 8 6.24-.138 6.24-8 6.24z"/>
    </symbol>
    <symbol id="entypo-social_instagram-with-circle" viewBox="0 0 32 32">
      <path d="M20.8 16a4.8 4.8 0 0 1-9.6 0c0-.274.029-.541.078-.8H9.6v6.395c0 .445.36.805.805.805h11.192a.803.803 0 0 0 .803-.804v-6.395h-1.678c.05.259.078.526.078.8zM16 19.2a3.199 3.199 0 0 0 2.956-4.427 3.207 3.207 0 0 0-2.958-1.975A3.201 3.201 0 1 0 16 19.2zm3.84-6.56h1.918a.481.481 0 0 0 .482-.48v-1.918a.485.485 0 0 0-.482-.482H19.84a.485.485 0 0 0-.482.482v1.918c.002.264.218.48.482.48zM16 .64A15.356 15.356 0 0 0 .64 16 15.356 15.356 0 0 0 16 31.36 15.36 15.36 0 1 0 16 .64zm8 21.582C24 23.2 23.2 24 22.222 24H9.777c-.978 0-1.778-.8-1.778-1.778V9.777c0-.978.8-1.778 1.778-1.778h12.445c.978 0 1.778.8 1.778 1.778v12.445z"/>
    </symbol>
    <symbol id="entypo-social_twitter-with-circle" viewBox="0 0 32 32">
      <path d="M16 .64C7.517.64.64 7.517.64 16S7.517 31.36 16 31.36 31.36 24.483 31.36 16 24.483.64 16 .64zm6.248 12.582c.006.131.008.262.008.39 0 4-3.042 8.61-8.606 8.61a8.54 8.54 0 0 1-4.637-1.36c.235.029.477.04.722.04a6.063 6.063 0 0 0 3.757-1.294 3.027 3.027 0 0 1-2.826-2.1c.453.086.92.068 1.365-.053a3.024 3.024 0 0 1-2.427-2.966v-.037c.408.226.875.363 1.371.379a3.023 3.023 0 0 1-.936-4.042 8.612 8.612 0 0 0 6.236 3.164 3.026 3.026 0 0 1 5.155-2.76 6.081 6.081 0 0 0 1.92-.734 3.04 3.04 0 0 1-1.33 1.675 6.075 6.075 0 0 0 1.738-.478 6.14 6.14 0 0 1-1.509 1.566z"/>
    </symbol>
    <symbol id="entypo-social_facebook-with-circle" viewBox="0 0 32 32">
      <path d="M16 .64C7.517.64.64 7.517.64 16S7.517 31.36 16 31.36 31.36 24.483 31.36 16 24.483.64 16 .64zm3.638 10.614h-2.309c-.274 0-.578.36-.578.838v1.667h2.888l-.437 2.378h-2.451v7.138h-2.725v-7.138h-2.472v-2.378h2.472v-1.398c0-2.006 1.392-3.637 3.302-3.637h2.309v2.53z"/>
    </symbol>
    <symbol id="logo" viewBox="0 0 43 32">
      <path d="M11.843 11.234a.984.984 0 0 1-.105.51c-.07.164-.135.311-.193.44l-.563.598-.334 1.002c-.129.094-.27.188-.422.281-.141.082-.27.17-.387.264a2.492 2.492 0 0 0-.352.352c-.094.129-.199.24-.316.334s-.258.176-.422.246a2.41 2.41 0 0 0-.422.211 9.41 9.41 0 0 0-.668.44c-.199.152-.41.299-.633.439a.415.415 0 0 0-.141.088.368.368 0 0 1-.123.07c-.035.023-.188.07-.457.141s-.568.152-.896.246c-.316.082-.615.158-.896.229s-.439.105-.475.105a6 6 0 0 1-.65.035c-.222 0-.445.006-.668.017l-.264.158c-.129-.094-.27-.182-.422-.264s-.281-.17-.387-.264a5.078 5.078 0 0 1-.352-.352c-.117-.141-.223-.27-.316-.387a22.376 22.376 0 0 0-.176-.475 4.326 4.326 0 0 1-.141-.475l-.088-.668c-.023-.223-.047-.439-.07-.65a12.81 12.81 0 0 0-.053-.65c.199-.551.375-1.102.527-1.652.164-.563.363-1.113.598-1.652.059-.129.111-.258.158-.387.059-.141.117-.275.176-.404.07-.141.146-.27.229-.387a3.21 3.21 0 0 0 .211-.387c.059-.141.105-.281.141-.422a2.2 2.2 0 0 1 .141-.422c.035-.07.094-.17.176-.299a8.12 8.12 0 0 1 .264-.422c.094-.152.182-.299.264-.439.094-.141.17-.252.229-.334.094-.117.188-.229.281-.334s.17-.223.228-.352c.117-.199.229-.451.334-.756s.223-.574.352-.809a4.41 4.41 0 0 1 .492-.721 7.75 7.75 0 0 0 .545-.721c.176-.246.346-.516.51-.809L7.08.983l.352.352.844-.141.527.791c-.023.176-.053.375-.088.598l-.07.686-.035.668c0 .211.012.398.035.563a3.706 3.706 0 0 1-.264.668 2.582 2.582 0 0 1-.369.58l-.07.949-.703.633-.088.897-.598.703c-.035.164-.07.334-.105.51a3.136 3.136 0 0 1-.141.475 4.952 4.952 0 0 1-.211.439c-.082.141-.164.287-.246.439-.234.199-.475.422-.721.668s-.469.492-.668.738c-.105.129-.205.27-.299.422-.082.141-.17.275-.264.404-.305.387-.633.75-.984 1.09s-.697.691-1.037 1.055l.387.685a17.107 17.107 0 0 0 1.529.422c.117-.023.252-.047.404-.07.152-.035.311-.07.475-.105.164-.047.322-.094.475-.141.164-.047.299-.094.404-.141.234-.094.504-.229.809-.404.305-.188.563-.352.773-.492.375-.234.756-.475 1.143-.721s.756-.504 1.107-.774c.234-.176.48-.398.738-.668l.721-.756c.234-.246.44-.445.615-.598.188-.152.316-.211.387-.176zM7.062 2.92c-.246.41-.51.809-.791 1.195-.27.375-.521.768-.756 1.178a3.107 3.107 0 0 0-.211.439 2.502 2.502 0 0 1-.229.422c-.082.129-.17.258-.264.387s-.176.27-.246.422c-.141.27-.27.557-.387.861-.105.293-.223.58-.352.861-.141.281-.305.545-.492.791s-.357.51-.51.791l-.281.563a.802.802 0 0 1-.07.141.38.38 0 0 0-.07.123c-.047.129-.07.27-.07.422s-.018.293-.053.422c-.035.141-.088.275-.158.404s-.135.258-.193.387a2.413 2.413 0 0 0-.141.404 4.808 4.808 0 0 1-.123.387c.094-.094.193-.176.299-.246.117-.082.228-.17.334-.264.105-.105.205-.217.299-.334s.199-.223.316-.316c.105-.094.217-.176.334-.246.129-.082.252-.164.369-.246a6.15 6.15 0 0 0 .492-.791c.07-.129.129-.275.176-.44.059-.164.129-.31.211-.439.07-.129.158-.252.264-.369a2.17 2.17 0 0 0 .299-.369 2.01 2.01 0 0 0 .229-.404c.07-.141.146-.275.229-.404.164-.258.346-.504.545-.738l.088-1.107.633-.738.088-.668.439-.615.053-.984-.299-.879zm14.466 8.56a.552.552 0 0 1-.053.457 1.224 1.224 0 0 1-.334.316 3.09 3.09 0 0 1-.439.264c-.152.07-.281.152-.387.246-.527.117-1.008.205-1.441.264-.422.047-.891.111-1.406.193a1.405 1.405 0 0 1-.439 0 1.156 1.156 0 0 0-.404-.035h-.229a.623.623 0 0 0-.211 0c-.27.024-.445.117-.527.281a2.662 2.662 0 0 0-.211.545 3.373 3.373 0 0 1-.193.58c-.07.176-.229.299-.475.369-.023.059-.018.111.018.158a.824.824 0 0 1 .105.123c-.199.059-.334.164-.404.316-.059.152-.111.305-.158.457s-.117.281-.211.387c-.082.105-.246.141-.492.105a4.254 4.254 0 0 1-1.283.932 4.847 4.847 0 0 1-1.529.475 1.759 1.759 0 0 1-.281-.176 2.129 2.129 0 0 0-.264-.193 1.072 1.072 0 0 0-.281-.141.812.812 0 0 0-.334 0 2.175 2.175 0 0 0-.141-.686 3.086 3.086 0 0 0-.352-.598 1.072 1.072 0 0 1 .088-.58c.07-.188.146-.369.229-.545s.152-.352.211-.527a1.19 1.19 0 0 0-.035-.633.509.509 0 0 0 .229-.246.879.879 0 0 0 .088-.281c.023-.105.053-.199.088-.281.035-.094.117-.17.246-.229-.094-.281-.082-.486.035-.615.129-.141.281-.264.457-.369s.34-.223.492-.352c.152-.129.211-.322.176-.58.07-.07.152-.129.246-.176s.182-.088.264-.123c.094-.047.182-.094.264-.141s.158-.111.229-.193c-.082-.059-.123-.117-.123-.176a.982.982 0 0 1 .053-.176l.07-.211a.225.225 0 0 0 0-.211c.316.047.592.006.826-.123.246-.141.475-.281.685-.422.223-.141.445-.24.668-.299s.48.012.773.211l.105.369c.059.152.111.311.158.475.059.164.111.322.158.475s.076.264.088.334V11.9c.34.199.68.322 1.02.369.34.035.68-.047 1.02-.246.129.117.252.152.369.105.117-.059.229-.123.334-.193a.68.68 0 0 1 .352-.105c.117-.012.234.082.352.281a1.06 1.06 0 0 1 .51-.281 2.1 2.1 0 0 1 .545-.07c.188-.012.369-.029.545-.053.188-.024.369-.1.545-.229zm-6.75.299c0-.176.029-.363.088-.563s.105-.393.141-.58a1.294 1.294 0 0 0-.018-.563c-.035-.176-.146-.334-.334-.475a.853.853 0 0 0-.316.299c-.082.117-.164.24-.246.369a1.213 1.213 0 0 1-.299.299c-.105.082-.246.105-.422.07-.059.141-.059.258 0 .352.059.082.129.164.211.246.082.07.158.146.229.229a.337.337 0 0 1 .088.316c.047.035.111.07.193.105.082.023.164.041.246.053.094 0 .182-.012.264-.035s.141-.064.176-.123zm-.123 1.406c-.234 0-.44-.053-.615-.158a11.508 11.508 0 0 1-.51-.387 4.33 4.33 0 0 0-.527-.387 1.278 1.278 0 0 0-.65-.229 2.946 2.946 0 0 1-.369.404c-.141.117-.264.246-.369.387s-.182.293-.229.457c-.035.164-.006.352.088.563-.27.129-.451.316-.545.563a3.09 3.09 0 0 0-.193.774l-.07.844a1.78 1.78 0 0 1-.229.756l.387-.264a.227.227 0 0 1 .105.105c.035.047.041.1.018.158a.938.938 0 0 1 .316-.211c.117-.058.234-.1.352-.123.129-.035.252-.064.369-.088.129-.023.252-.059.369-.105.293.164.504.199.633.105s.234-.234.316-.422c.082-.188.17-.381.264-.58a.633.633 0 0 1 .457-.387l-.123-.123a6.24 6.24 0 0 0 .527-.756c.164-.27.24-.568.229-.896zm17.262-1.212c-.129.164-.229.346-.299.545s-.158.387-.264.563a1.346 1.346 0 0 1-.369.439c-.141.117-.34.17-.598.158a.754.754 0 0 0-.422.387c-.082.176-.164.357-.246.545a1.37 1.37 0 0 1-.316.439c-.129.105-.322.117-.58.035a3.384 3.384 0 0 0-.896.563c-.258.223-.504.457-.738.703a4.423 4.423 0 0 0-.281.316 1.46 1.46 0 0 1-.299.264c-.082.047-.164.053-.246.018s-.158-.07-.229-.105a.377.377 0 0 0-.211-.07c-.059 0-.111.053-.158.158.082.164.1.275.053.334-.047.07-.123.123-.229.158s-.217.064-.334.088a.612.612 0 0 0-.281.123c-.141.129-.24.287-.299.475s-.111.375-.158.563a2.054 2.054 0 0 1-.211.527.833.833 0 0 1-.422.404c.117.082.164.164.141.246a.696.696 0 0 1-.088.246 1.505 1.505 0 0 0-.105.264c-.012.082.035.164.141.246a5.134 5.134 0 0 0-.475.721l-.387.773c-.129.27-.27.527-.422.773a2.57 2.57 0 0 1-.545.686l.053.422c-.176-.047-.287-.041-.334.018-.035.059-.053.141-.053.246v.316c.012.117-.023.205-.105.264a.34.34 0 0 1-.123.105.68.68 0 0 0-.105.088 2.135 2.135 0 0 0-.773 1.072c-.023.07-.041.141-.053.211s-.029.146-.053.229c-.059.164-.152.334-.281.51s-.27.357-.422.545c-.152.188-.299.381-.439.58a3.28 3.28 0 0 0-.334.633c-.188-.023-.334-.006-.439.053a.859.859 0 0 0-.281.264c-.07.117-.129.24-.176.369s-.105.24-.176.334a.715.715 0 0 1-.299.229c-.129.059-.293.059-.492 0l-.791.721c-.141-.082-.275-.1-.404-.053a1.825 1.825 0 0 0-.404.193 2.53 2.53 0 0 1-.404.193.537.537 0 0 1-.439-.053c-.082.094-.152.141-.211.141-.059.012-.129-.035-.211-.141l-.264.281a2.924 2.924 0 0 0-.51-.334 3.132 3.132 0 0 1-.58-.334 1.45 1.45 0 0 1-.422-.422c-.105-.152-.123-.352-.053-.598a1.448 1.448 0 0 0-.105-.229 1.156 1.156 0 0 1-.141-.264.951.951 0 0 1-.07-.264.285.285 0 0 1 .07-.229c-.105-.199-.141-.404-.105-.615.024-.199.065-.398.123-.598s.105-.398.141-.598a.917.917 0 0 0-.105-.598.968.968 0 0 0 .316-.404c.059-.164.117-.334.176-.51.047-.176.1-.346.158-.51s.158-.299.299-.404l-.018-.281a16.335 16.335 0 0 1 1.758-1.617 6.238 6.238 0 0 1 2.074-1.072c.152-.27.352-.469.598-.598.246-.117.498-.229.756-.334.246-.094.475-.217.686-.369.211-.141.369-.369.475-.686.059.129.117.182.176.158a.417.417 0 0 0 .176-.088c.07-.035.135-.064.193-.088.059-.012.117.041.176.158a1.79 1.79 0 0 1 .563-.844c.27-.211.563-.398.879-.563l.984-.457a3.33 3.33 0 0 0 .861-.527c.258-.211.451-.469.58-.773.129-.316.158-.721.088-1.213a.507.507 0 0 0 .211-.264c.035-.117.059-.234.07-.351.023-.117.053-.223.088-.316s.111-.158.229-.193c-.082-.129-.182-.188-.299-.176s-.24.047-.369.105c-.117.059-.229.117-.334.176s-.193.07-.264.035a.51.51 0 0 1-.229.352c-.105.07-.223.135-.352.193-.129.047-.264.1-.404.158s-.252.152-.334.281c-.105-.047-.205-.023-.299.07a7.06 7.06 0 0 0-.264.281c-.082.094-.176.164-.281.211s-.229 0-.369-.141a.58.58 0 0 1-.352.369c-.152.059-.322.088-.51.088s-.381-.012-.58-.035a1.475 1.475 0 0 0-.51.017l-.299-.299a.326.326 0 0 1-.105.141.192.192 0 0 1-.176.018 7.72 7.72 0 0 1-.264-.633 2.582 2.582 0 0 1-.176-.685 1.412 1.412 0 0 1 .053-.668 1.18 1.18 0 0 1 .422-.58 3.822 3.822 0 0 1 1.283-1.406.238.238 0 0 0 .193.053c.07-.023.141-.053.211-.088.082-.047.158-.094.229-.141a.443.443 0 0 1 .193-.105c.035-.129.1-.252.193-.369.105-.117.217-.223.334-.316.129-.094.258-.176.387-.246a7.42 7.42 0 0 1 .387-.211c.223-.105.428-.234.615-.387.199-.164.398-.316.598-.457.199-.152.404-.281.615-.387s.451-.158.721-.158l.316.281a2.115 2.115 0 0 0-.527.439l-.439.51c-.152.164-.316.316-.492.457s-.392.234-.65.281a3.26 3.26 0 0 1-.861 1.055 14.46 14.46 0 0 1-1.09.791c0 .176-.053.316-.158.422s-.229.199-.369.281a7.95 7.95 0 0 1-.422.229.963.963 0 0 0-.352.246.541.541 0 0 0-.123.369c0 .141.076.328.229.563.141-.07.311-.117.51-.141s.393-.053.58-.088c.188-.047.352-.111.492-.193a.728.728 0 0 0 .316-.422c.164-.141.34-.229.527-.264s.381-.041.58-.018c.387-.422.773-.809 1.16-1.16.398-.363.773-.732 1.125-1.107s.674-.773.967-1.195c.305-.434.568-.932.791-1.494.234-.07.445-.041.633.088s.322.293.404.492a1.574 1.574 0 0 1-.123.404l-.141.352a2.659 2.659 0 0 0-.088.352c-.012.129.012.275.07.439-.094-.023-.17.006-.229.088-.047.082-.1.152-.158.211a.74.74 0 0 1-.017.422 2.459 2.459 0 0 1-.176.352c-.07.105-.135.223-.193.351a.836.836 0 0 0-.035.422 4.025 4.025 0 0 0-.369.967c-.07.328-.117.662-.141 1.002l.316.281c.152-.223.34-.381.563-.475.234-.094.469-.17.703-.229.234-.07.463-.146.686-.229a1.39 1.39 0 0 0 .58-.475c.07-.34.217-.58.439-.721.223-.152.457-.281.703-.387s.48-.223.703-.351c.234-.141.398-.363.492-.668h.439c-.023.059-.012.111.035.158l.123.123zm-9.721 7.787c-.117.07-.246.135-.387.193s-.281.123-.422.193-.27.152-.387.246a.879.879 0 0 0-.264.352.378.378 0 0 0-.369-.017c-.105.07-.211.146-.316.229a1.54 1.54 0 0 1-.334.229c-.105.059-.223.053-.352-.018a6.22 6.22 0 0 0-.633.457 23.73 23.73 0 0 1-.633.475 5.704 5.704 0 0 1-.65.439 2.89 2.89 0 0 1-.738.316 1.367 1.367 0 0 1-.51.492c-.211.129-.422.252-.633.369-.223.117-.422.258-.598.422s-.287.393-.334.686c-.363.234-.609.533-.738.896a3.62 3.62 0 0 0-.229 1.178 9.09 9.09 0 0 0 .053 1.266c.047.434.07.826.07 1.178.152.176.305.299.457.369s.31.105.475.105c.164 0 .334-.023.51-.07.164-.035.346-.07.545-.105.047-.176.135-.293.264-.352.117-.047.246-.082.387-.105.129-.023.252-.059.369-.105.105-.035.164-.129.176-.281l.158.141a.883.883 0 0 1 .158-.475c.094-.117.205-.229.334-.334s.27-.205.422-.299c.141-.094.264-.199.369-.316-.023-.223.018-.41.123-.563s.223-.293.352-.422.246-.27.352-.422c.094-.152.129-.346.105-.58.117-.047.199-.123.246-.229s.094-.205.141-.299a.526.526 0 0 1 .176-.211c.082-.047.205-.035.369.035-.164-.129-.234-.229-.211-.299a.537.537 0 0 1 .176-.193c.082-.047.158-.105.229-.176s.07-.176 0-.316c.281-.117.463-.287.545-.51s.141-.463.176-.721c.047-.246.111-.492.193-.738.082-.234.264-.422.545-.563a.915.915 0 0 1 .105-.563c.105-.152.205-.299.299-.439.105-.141.176-.287.211-.439.047-.152.006-.334-.123-.545l-.229.439zm20.655-8.28a.552.552 0 0 1-.053.457 1.224 1.224 0 0 1-.334.316 3.048 3.048 0 0 1-.44.264c-.152.07-.281.152-.387.246-.527.117-1.008.205-1.441.264-.422.047-.891.111-1.406.193a1.405 1.405 0 0 1-.439 0 1.156 1.156 0 0 0-.404-.035h-.228a.623.623 0 0 0-.211 0c-.27.024-.445.117-.527.281a2.662 2.662 0 0 0-.211.545 3.373 3.373 0 0 1-.193.58c-.07.176-.228.299-.475.369-.023.059-.018.111.018.158a.824.824 0 0 1 .105.123c-.199.059-.334.164-.404.316-.059.152-.111.305-.158.457s-.117.281-.211.387c-.082.105-.246.141-.492.105a4.254 4.254 0 0 1-1.283.932 4.847 4.847 0 0 1-1.529.475 1.759 1.759 0 0 1-.281-.176 2.129 2.129 0 0 0-.264-.193 1.072 1.072 0 0 0-.281-.141.812.812 0 0 0-.334 0 2.175 2.175 0 0 0-.141-.686 3.086 3.086 0 0 0-.352-.598 1.072 1.072 0 0 1 .088-.58c.07-.188.146-.369.229-.545s.152-.352.211-.527a1.19 1.19 0 0 0-.035-.633.509.509 0 0 0 .229-.246.879.879 0 0 0 .088-.281c.023-.105.053-.199.088-.281.035-.094.117-.17.246-.229-.094-.281-.082-.486.035-.615.129-.141.281-.264.457-.369s.34-.223.492-.352c.152-.129.211-.322.176-.58.07-.07.152-.129.246-.176s.182-.088.264-.123c.094-.047.182-.094.264-.141s.158-.111.229-.193c-.082-.059-.123-.117-.123-.176a.982.982 0 0 1 .053-.176l.07-.211a.225.225 0 0 0 0-.211c.316.047.592.006.826-.123.246-.141.475-.281.686-.422.223-.141.445-.24.668-.299s.48.012.773.211l.105.369c.059.152.111.311.158.475.059.164.111.322.158.475s.076.264.088.334V11.9c.34.199.68.322 1.02.369.34.035.68-.047 1.02-.246.129.117.252.152.369.105.117-.059.229-.123.334-.193a.68.68 0 0 1 .352-.105c.117-.012.234.082.352.281a1.06 1.06 0 0 1 .51-.281 2.1 2.1 0 0 1 .545-.07c.188-.012.369-.029.545-.053.188-.024.369-.1.545-.229zm-6.75.299c0-.176.029-.363.088-.563s.105-.393.141-.58a1.294 1.294 0 0 0-.018-.563c-.035-.176-.147-.334-.334-.475a.853.853 0 0 0-.316.299c-.082.117-.164.24-.246.369a1.213 1.213 0 0 1-.299.299c-.105.082-.246.105-.422.07-.059.141-.059.258 0 .352.059.082.129.164.211.246.082.07.158.146.228.229a.337.337 0 0 1 .088.316c.047.035.111.07.193.105.082.023.164.041.246.053.094 0 .182-.012.264-.035s.141-.064.176-.123zm-.124 1.406c-.234 0-.439-.053-.615-.158a11.508 11.508 0 0 1-.51-.387 4.33 4.33 0 0 0-.527-.387 1.278 1.278 0 0 0-.65-.229 2.883 2.883 0 0 1-.369.404c-.141.117-.264.246-.369.387s-.182.293-.228.457c-.035.164-.006.352.088.563-.27.129-.451.316-.545.563a3.09 3.09 0 0 0-.193.774l-.07.844a1.78 1.78 0 0 1-.229.756l.387-.264a.227.227 0 0 1 .105.105c.035.047.041.1.018.158a.938.938 0 0 1 .316-.211c.117-.058.234-.1.352-.123.129-.035.252-.064.369-.088.129-.023.252-.059.369-.105.293.164.504.199.633.105s.234-.234.316-.422c.082-.188.17-.381.264-.58a.633.633 0 0 1 .457-.387l-.123-.123a6.24 6.24 0 0 0 .527-.756c.164-.27.24-.568.228-.896z"/>
    </symbol>
  </defs>
</svg>
