<svg aria-hidden="true" style="position: absolute; width: 0; height: 0; overflow: hidden;" version="1.1" xmlns="http://www.w3.org/2000/svg" xmlns:xlink="http://www.w3.org/1999/xlink">
<defs>
<symbol id="entypo-social_pinterest-with-circle" viewBox="0 0 32 32">
<path d="M16 0.64c-8.483 0-15.36 6.877-15.36 15.36s6.877 15.36 15.36 15.36c8.483 0 15.36-6.877 15.36-15.36s-6.877-15.36-15.36-15.36zM17.051 19.64c-0.986-0.075-1.398-0.563-2.17-1.030-0.424 2.226-0.942 4.36-2.478 5.475-0.475-3.366 0.694-5.891 1.238-8.574-0.926-1.56 0.11-4.698 2.066-3.926 2.405 0.954-2.083 5.8 0.93 6.406 3.146 0.63 4.43-5.459 2.48-7.437-2.819-2.859-8.203-0.066-7.541 4.027 0.16 1 1.195 1.304 0.413 2.685-1.803-0.4-2.342-1.822-2.272-3.718 0.11-3.104 2.789-5.278 5.474-5.578 3.397-0.378 6.584 1.246 7.026 4.443 0.494 3.606-1.534 7.509-5.165 7.227z"></path>
</symbol>
<symbol id="entypo-social_youtube-with-circle" viewBox="0 0 32 32">
<path d="M18.565 15.733l-3.594-1.677c-0.314-0.146-0.571 0.018-0.571 0.365v3.158c0 0.347 0.258 0.51 0.571 0.365l3.592-1.677c0.315-0.147 0.315-0.387 0.002-0.534zM16 0.64c-8.483 0-15.36 6.877-15.36 15.36s6.877 15.36 15.36 15.36c8.483 0 15.36-6.877 15.36-15.36s-6.877-15.36-15.36-15.36zM16 22.24c-7.862 0-8-0.709-8-6.24s0.138-6.24 8-6.24c7.862 0 8 0.709 8 6.24s-0.138 6.24-8 6.24z"></path>
</symbol>
<symbol id="entypo-social_instagram-with-circle" viewBox="0 0 32 32">
<path d="M20.8 16c0 1.273-0.506 2.494-1.406 3.394s-2.121 1.406-3.394 1.406-2.494-0.506-3.394-1.406c-0.9-0.9-1.406-2.121-1.406-3.394 0-0.274 0.029-0.541 0.078-0.8h-1.678v6.395c0 0.445 0.36 0.805 0.805 0.805h11.192c0.213-0 0.417-0.085 0.568-0.236s0.235-0.355 0.235-0.568v-6.395h-1.678c0.050 0.259 0.078 0.526 0.078 0.8zM16 19.2c0.42-0 0.837-0.083 1.225-0.244s0.741-0.397 1.038-0.694c0.297-0.297 0.533-0.65 0.694-1.039s0.243-0.805 0.243-1.225-0.083-0.837-0.244-1.225c-0.161-0.388-0.397-0.741-0.694-1.038s-0.65-0.533-1.039-0.694c-0.388-0.161-0.805-0.243-1.225-0.243-0.849 0-1.663 0.338-2.263 0.938s-0.937 1.415-0.937 2.264 0.338 1.663 0.938 2.263c0.6 0.6 1.415 0.937 2.264 0.937zM19.84 12.64h1.918c0.127 0 0.25-0.050 0.34-0.14s0.141-0.212 0.142-0.34v-1.918c0-0.128-0.051-0.25-0.141-0.341s-0.213-0.141-0.341-0.141h-1.918c-0.128 0-0.25 0.051-0.341 0.141s-0.141 0.213-0.141 0.341v1.918c0.002 0.264 0.218 0.48 0.482 0.48zM16 0.64c-4.074 0-7.981 1.618-10.861 4.499s-4.499 6.787-4.499 10.861 1.618 7.981 4.499 10.861c2.881 2.881 6.787 4.499 10.861 4.499 2.017 0 4.014-0.397 5.878-1.169s3.557-1.903 4.983-3.33c1.426-1.426 2.558-3.12 3.33-4.983s1.169-3.861 1.169-5.878-0.397-4.014-1.169-5.878c-0.772-1.864-1.903-3.557-3.33-4.983s-3.12-2.558-4.983-3.33c-1.864-0.772-3.861-1.169-5.878-1.169zM24 22.222c0 0.978-0.8 1.778-1.778 1.778h-12.445c-0.978 0-1.778-0.8-1.778-1.778v-12.445c0-0.978 0.8-1.778 1.778-1.778h12.445c0.978 0 1.778 0.8 1.778 1.778v12.445z"></path>
</symbol>
<symbol id="entypo-social_twitter-with-circle" viewBox="0 0 32 32">
<path d="M16 0.64c-8.483 0-15.36 6.877-15.36 15.36s6.877 15.36 15.36 15.36c8.483 0 15.36-6.877 15.36-15.36s-6.877-15.36-15.36-15.36zM22.248 13.222c0.006 0.131 0.008 0.262 0.008 0.39 0 4-3.042 8.61-8.606 8.61-1.644 0.003-3.254-0.47-4.637-1.36 0.235 0.029 0.477 0.040 0.722 0.040 1.418 0 2.722-0.482 3.757-1.294-0.631-0.012-1.242-0.221-1.749-0.598s-0.883-0.901-1.077-1.502c0.453 0.086 0.92 0.068 1.365-0.053-0.685-0.138-1.3-0.509-1.743-1.050s-0.684-1.218-0.684-1.916v-0.037c0.408 0.226 0.875 0.363 1.371 0.379-0.642-0.427-1.096-1.084-1.27-1.835s-0.054-1.541 0.334-2.207c0.76 0.934 1.708 1.699 2.782 2.244s2.251 0.858 3.454 0.92c-0.153-0.649-0.087-1.331 0.187-1.938s0.742-1.108 1.33-1.423c0.588-0.315 1.263-0.426 1.921-0.318s1.262 0.432 1.717 0.919c0.677-0.134 1.326-0.382 1.92-0.734-0.226 0.701-0.698 1.296-1.33 1.675 0.6-0.072 1.185-0.233 1.738-0.478-0.406 0.608-0.917 1.138-1.509 1.566z"></path>
</symbol>
<symbol id="entypo-social_facebook-with-circle" viewBox="0 0 32 32">
<path d="M16 0.64c-8.483 0-15.36 6.877-15.36 15.36s6.877 15.36 15.36 15.36c8.483 0 15.36-6.877 15.36-15.36s-6.877-15.36-15.36-15.36zM19.638 11.254h-2.309c-0.274 0-0.578 0.36-0.578 0.838v1.667h2.888l-0.437 2.378h-2.451v7.138h-2.725v-7.138h-2.472v-2.378h2.472v-1.398c0-2.006 1.392-3.637 3.302-3.637h2.309v2.53z"></path>
</symbol>
<symbol id="logo" viewBox="0 0 43 32">
<path d="M11.843 11.234c0.012 0.176-0.024 0.346-0.105 0.51-0.070 0.164-0.135 0.311-0.193 0.44l-0.563 0.598-0.334 1.002c-0.129 0.094-0.27 0.188-0.422 0.281-0.141 0.082-0.27 0.17-0.387 0.264-0.129 0.105-0.246 0.223-0.352 0.352-0.094 0.129-0.199 0.24-0.316 0.334s-0.258 0.176-0.422 0.246c-0.152 0.059-0.293 0.129-0.422 0.211-0.234 0.141-0.457 0.287-0.668 0.44-0.199 0.152-0.41 0.299-0.633 0.439-0.059 0.023-0.105 0.053-0.141 0.088-0.023 0.023-0.064 0.047-0.123 0.070-0.035 0.023-0.188 0.070-0.457 0.141s-0.568 0.152-0.896 0.246c-0.316 0.082-0.615 0.158-0.896 0.229s-0.439 0.105-0.475 0.105c-0.211 0.023-0.428 0.035-0.65 0.035s-0.445 0.006-0.668 0.017l-0.264 0.158c-0.129-0.094-0.27-0.182-0.422-0.264s-0.281-0.17-0.387-0.264c-0.117-0.105-0.234-0.223-0.352-0.352-0.117-0.141-0.223-0.27-0.316-0.387-0.059-0.164-0.117-0.322-0.176-0.475-0.059-0.164-0.105-0.322-0.141-0.475l-0.088-0.668c-0.023-0.223-0.047-0.439-0.070-0.65-0.012-0.211-0.029-0.428-0.053-0.65 0.199-0.551 0.375-1.102 0.527-1.652 0.164-0.563 0.363-1.113 0.598-1.652 0.059-0.129 0.111-0.258 0.158-0.387 0.059-0.141 0.117-0.275 0.176-0.404 0.070-0.141 0.146-0.27 0.229-0.387 0.082-0.129 0.152-0.258 0.211-0.387 0.059-0.141 0.105-0.281 0.141-0.422 0.035-0.152 0.082-0.293 0.141-0.422 0.035-0.070 0.094-0.17 0.176-0.299 0.082-0.141 0.17-0.281 0.264-0.422 0.094-0.152 0.182-0.299 0.264-0.439 0.094-0.141 0.17-0.252 0.229-0.334 0.094-0.117 0.188-0.229 0.281-0.334s0.17-0.223 0.228-0.352c0.117-0.199 0.229-0.451 0.334-0.756s0.223-0.574 0.352-0.809c0.141-0.258 0.305-0.498 0.492-0.721 0.199-0.234 0.381-0.475 0.545-0.721 0.176-0.246 0.346-0.516 0.51-0.809l0.773-0.563 0.352 0.352 0.844-0.141 0.527 0.791c-0.023 0.176-0.053 0.375-0.088 0.598-0.023 0.223-0.047 0.451-0.070 0.686-0.012 0.223-0.023 0.445-0.035 0.668 0 0.211 0.012 0.398 0.035 0.563-0.059 0.211-0.146 0.434-0.264 0.668-0.105 0.223-0.229 0.416-0.369 0.58l-0.070 0.949-0.703 0.633-0.088 0.897-0.598 0.703c-0.035 0.164-0.070 0.334-0.105 0.51-0.035 0.164-0.082 0.322-0.141 0.475-0.059 0.141-0.129 0.287-0.211 0.439-0.082 0.141-0.164 0.287-0.246 0.439-0.234 0.199-0.475 0.422-0.721 0.668s-0.469 0.492-0.668 0.738c-0.105 0.129-0.205 0.27-0.299 0.422-0.082 0.141-0.17 0.275-0.264 0.404-0.305 0.387-0.633 0.75-0.984 1.090s-0.697 0.691-1.037 1.055l0.387 0.685c0.246 0.082 0.498 0.158 0.756 0.229s0.516 0.135 0.773 0.193c0.117-0.023 0.252-0.047 0.404-0.070 0.152-0.035 0.311-0.070 0.475-0.105 0.164-0.047 0.322-0.094 0.475-0.141 0.164-0.047 0.299-0.094 0.404-0.141 0.234-0.094 0.504-0.229 0.809-0.404 0.305-0.188 0.563-0.352 0.773-0.492 0.375-0.234 0.756-0.475 1.143-0.721s0.756-0.504 1.107-0.774c0.234-0.176 0.48-0.398 0.738-0.668s0.498-0.521 0.721-0.756c0.234-0.246 0.44-0.445 0.615-0.598 0.188-0.152 0.316-0.211 0.387-0.176zM7.062 2.92c-0.246 0.41-0.51 0.809-0.791 1.195-0.27 0.375-0.521 0.768-0.756 1.178-0.082 0.141-0.152 0.287-0.211 0.439-0.059 0.141-0.135 0.281-0.229 0.422-0.082 0.129-0.17 0.258-0.264 0.387s-0.176 0.27-0.246 0.422c-0.141 0.27-0.27 0.557-0.387 0.861-0.105 0.293-0.223 0.58-0.352 0.861-0.141 0.281-0.305 0.545-0.492 0.791s-0.357 0.51-0.51 0.791l-0.281 0.563c-0.023 0.059-0.047 0.105-0.070 0.141-0.023 0.023-0.047 0.065-0.070 0.123-0.047 0.129-0.070 0.27-0.070 0.422s-0.018 0.293-0.053 0.422c-0.035 0.141-0.088 0.275-0.158 0.404s-0.135 0.258-0.193 0.387c-0.059 0.129-0.105 0.264-0.141 0.404-0.035 0.129-0.076 0.258-0.123 0.387 0.094-0.094 0.193-0.176 0.299-0.246 0.117-0.082 0.228-0.17 0.334-0.264 0.105-0.105 0.205-0.217 0.299-0.334s0.199-0.223 0.316-0.316c0.105-0.094 0.217-0.176 0.334-0.246 0.129-0.082 0.252-0.164 0.369-0.246 0.188-0.258 0.352-0.521 0.492-0.791 0.070-0.129 0.129-0.275 0.176-0.44 0.059-0.164 0.129-0.31 0.211-0.439 0.070-0.129 0.158-0.252 0.264-0.369 0.117-0.117 0.217-0.24 0.299-0.369 0.094-0.129 0.17-0.264 0.229-0.404 0.070-0.141 0.146-0.275 0.229-0.404 0.164-0.258 0.346-0.504 0.545-0.738l0.088-1.107 0.633-0.738 0.088-0.668 0.439-0.615 0.053-0.984-0.299-0.879zM21.528 11.48c0.047 0.176 0.029 0.328-0.053 0.457-0.082 0.117-0.193 0.223-0.334 0.316-0.129 0.094-0.275 0.182-0.439 0.264-0.152 0.070-0.281 0.152-0.387 0.246-0.527 0.117-1.008 0.205-1.441 0.264-0.422 0.047-0.891 0.111-1.406 0.193-0.152 0.023-0.299 0.023-0.439 0-0.129-0.035-0.264-0.047-0.404-0.035-0.082 0-0.158 0-0.229 0-0.070-0.012-0.141-0.012-0.211 0-0.27 0.024-0.445 0.117-0.527 0.281-0.082 0.152-0.152 0.334-0.211 0.545-0.047 0.199-0.111 0.393-0.193 0.58-0.070 0.176-0.229 0.299-0.475 0.369-0.023 0.059-0.018 0.111 0.018 0.158 0.047 0.047 0.082 0.088 0.105 0.123-0.199 0.059-0.334 0.164-0.404 0.316-0.059 0.152-0.111 0.305-0.158 0.457s-0.117 0.281-0.211 0.387c-0.082 0.105-0.246 0.141-0.492 0.105-0.363 0.387-0.791 0.697-1.283 0.932-0.492 0.246-1.002 0.404-1.529 0.475-0.094-0.047-0.188-0.105-0.281-0.176-0.082-0.070-0.17-0.135-0.264-0.193-0.082-0.059-0.176-0.105-0.281-0.141-0.094-0.023-0.205-0.023-0.334 0-0.012-0.246-0.059-0.475-0.141-0.686-0.094-0.211-0.211-0.41-0.352-0.598-0.023-0.211 0.006-0.404 0.088-0.58 0.070-0.188 0.146-0.369 0.229-0.545s0.152-0.352 0.211-0.527c0.047-0.188 0.035-0.399-0.035-0.633 0.117-0.070 0.193-0.152 0.229-0.246 0.047-0.094 0.076-0.188 0.088-0.281 0.023-0.105 0.053-0.199 0.088-0.281 0.035-0.094 0.117-0.17 0.246-0.229-0.094-0.281-0.082-0.486 0.035-0.615 0.129-0.141 0.281-0.264 0.457-0.369s0.34-0.223 0.492-0.352c0.152-0.129 0.211-0.322 0.176-0.58 0.070-0.070 0.152-0.129 0.246-0.176s0.182-0.088 0.264-0.123c0.094-0.047 0.182-0.094 0.264-0.141s0.158-0.111 0.229-0.193c-0.082-0.059-0.123-0.117-0.123-0.176 0.012-0.059 0.029-0.117 0.053-0.176 0.023-0.070 0.047-0.141 0.070-0.211 0.035-0.070 0.035-0.141 0-0.211 0.316 0.047 0.592 0.006 0.826-0.123 0.246-0.141 0.475-0.281 0.685-0.422 0.223-0.141 0.445-0.24 0.668-0.299s0.48 0.012 0.773 0.211c0.023 0.082 0.059 0.205 0.105 0.369 0.059 0.152 0.111 0.311 0.158 0.475 0.059 0.164 0.111 0.322 0.158 0.475s0.076 0.264 0.088 0.334c0 0.059 0 0.152 0 0.281s0 0.27 0 0.422c0 0.141 0 0.275 0 0.404s0 0.229 0 0.299c0.34 0.199 0.68 0.322 1.020 0.369 0.34 0.035 0.68-0.047 1.020-0.246 0.129 0.117 0.252 0.152 0.369 0.105 0.117-0.059 0.229-0.123 0.334-0.193 0.117-0.070 0.234-0.105 0.352-0.105 0.117-0.012 0.234 0.082 0.352 0.281 0.164-0.152 0.334-0.246 0.51-0.281 0.176-0.047 0.357-0.070 0.545-0.070 0.188-0.012 0.369-0.029 0.545-0.053 0.188-0.024 0.369-0.1 0.545-0.229zM14.778 11.779c0-0.176 0.029-0.363 0.088-0.563s0.105-0.393 0.141-0.58c0.035-0.199 0.029-0.387-0.018-0.563-0.035-0.176-0.146-0.334-0.334-0.475-0.129 0.070-0.234 0.17-0.316 0.299-0.082 0.117-0.164 0.24-0.246 0.369-0.082 0.117-0.182 0.217-0.299 0.299-0.105 0.082-0.246 0.105-0.422 0.070-0.059 0.141-0.059 0.258 0 0.352 0.059 0.082 0.129 0.164 0.211 0.246 0.082 0.070 0.158 0.146 0.229 0.229 0.082 0.082 0.111 0.188 0.088 0.316 0.047 0.035 0.111 0.070 0.193 0.105 0.082 0.023 0.164 0.041 0.246 0.053 0.094 0 0.182-0.012 0.264-0.035s0.141-0.064 0.176-0.123zM14.655 13.185c-0.234 0-0.44-0.053-0.615-0.158-0.164-0.117-0.334-0.246-0.51-0.387-0.164-0.141-0.34-0.27-0.527-0.387-0.176-0.129-0.393-0.205-0.65-0.229-0.105 0.141-0.229 0.275-0.369 0.404-0.141 0.117-0.264 0.246-0.369 0.387s-0.182 0.293-0.229 0.457c-0.035 0.164-0.006 0.352 0.088 0.563-0.27 0.129-0.451 0.316-0.545 0.563-0.094 0.234-0.158 0.492-0.193 0.774-0.024 0.281-0.047 0.563-0.070 0.844s-0.1 0.533-0.229 0.756l0.387-0.264c0.047 0.023 0.082 0.059 0.105 0.105 0.035 0.047 0.041 0.1 0.018 0.158 0.094-0.094 0.199-0.164 0.316-0.211 0.117-0.058 0.234-0.1 0.352-0.123 0.129-0.035 0.252-0.064 0.369-0.088 0.129-0.023 0.252-0.059 0.369-0.105 0.293 0.164 0.504 0.199 0.633 0.105s0.234-0.234 0.316-0.422c0.082-0.188 0.17-0.381 0.264-0.58 0.094-0.211 0.246-0.34 0.457-0.387l-0.123-0.123c0.199-0.246 0.375-0.498 0.527-0.756 0.164-0.27 0.24-0.568 0.229-0.896zM31.917 11.973c-0.129 0.164-0.229 0.346-0.299 0.545s-0.158 0.387-0.264 0.563c-0.094 0.176-0.217 0.322-0.369 0.439-0.141 0.117-0.34 0.17-0.598 0.158-0.188 0.070-0.328 0.199-0.422 0.387-0.082 0.176-0.164 0.357-0.246 0.545-0.082 0.176-0.188 0.322-0.316 0.439-0.129 0.105-0.322 0.117-0.58 0.035-0.328 0.141-0.627 0.328-0.896 0.563-0.258 0.223-0.504 0.457-0.738 0.703-0.082 0.082-0.176 0.188-0.281 0.316-0.105 0.117-0.205 0.205-0.299 0.264-0.082 0.047-0.164 0.053-0.246 0.018s-0.158-0.070-0.229-0.105c-0.070-0.047-0.141-0.070-0.211-0.070-0.059 0-0.111 0.053-0.158 0.158 0.082 0.164 0.1 0.275 0.053 0.334-0.047 0.070-0.123 0.123-0.229 0.158s-0.217 0.064-0.334 0.088c-0.117 0.023-0.211 0.064-0.281 0.123-0.141 0.129-0.24 0.287-0.299 0.475s-0.111 0.375-0.158 0.563c-0.047 0.188-0.117 0.363-0.211 0.527-0.082 0.176-0.223 0.311-0.422 0.404 0.117 0.082 0.164 0.164 0.141 0.246-0.012 0.082-0.041 0.164-0.088 0.246-0.047 0.094-0.082 0.182-0.105 0.264-0.012 0.082 0.035 0.164 0.141 0.246-0.176 0.223-0.334 0.463-0.475 0.721-0.129 0.258-0.258 0.516-0.387 0.773-0.129 0.27-0.27 0.527-0.422 0.773-0.141 0.258-0.322 0.486-0.545 0.686l0.053 0.422c-0.176-0.047-0.287-0.041-0.334 0.018-0.035 0.059-0.053 0.141-0.053 0.246s0 0.211 0 0.316c0.012 0.117-0.023 0.205-0.105 0.264-0.035 0.047-0.076 0.082-0.123 0.105-0.035 0.023-0.070 0.053-0.105 0.088-0.375 0.281-0.633 0.639-0.773 1.072-0.023 0.070-0.041 0.141-0.053 0.211s-0.029 0.146-0.053 0.229c-0.059 0.164-0.152 0.334-0.281 0.51s-0.27 0.357-0.422 0.545c-0.152 0.188-0.299 0.381-0.439 0.58-0.141 0.211-0.252 0.422-0.334 0.633-0.188-0.023-0.334-0.006-0.439 0.053-0.117 0.070-0.211 0.158-0.281 0.264-0.070 0.117-0.129 0.24-0.176 0.369s-0.105 0.24-0.176 0.334c-0.082 0.105-0.182 0.182-0.299 0.229-0.129 0.059-0.293 0.059-0.492 0l-0.791 0.721c-0.141-0.082-0.275-0.1-0.404-0.053-0.141 0.047-0.275 0.111-0.404 0.193-0.141 0.082-0.275 0.146-0.404 0.193-0.141 0.047-0.287 0.029-0.439-0.053-0.082 0.094-0.152 0.141-0.211 0.141-0.059 0.012-0.129-0.035-0.211-0.141l-0.264 0.281c-0.141-0.117-0.31-0.229-0.51-0.334-0.211-0.094-0.404-0.205-0.58-0.334-0.176-0.117-0.316-0.258-0.422-0.422-0.105-0.152-0.123-0.352-0.053-0.598-0.024-0.070-0.059-0.146-0.105-0.229-0.059-0.082-0.105-0.17-0.141-0.264-0.035-0.082-0.059-0.17-0.070-0.264-0.012-0.082 0.012-0.158 0.070-0.229-0.105-0.199-0.141-0.404-0.105-0.615 0.024-0.199 0.065-0.398 0.123-0.598s0.105-0.398 0.141-0.598c0.035-0.199 0-0.398-0.105-0.598 0.141-0.105 0.246-0.24 0.316-0.404 0.059-0.164 0.117-0.334 0.176-0.51 0.047-0.176 0.1-0.346 0.158-0.51s0.158-0.299 0.299-0.404l-0.018-0.281c0.551-0.586 1.137-1.125 1.758-1.617 0.609-0.48 1.301-0.838 2.074-1.072 0.152-0.27 0.352-0.469 0.598-0.598 0.246-0.117 0.498-0.229 0.756-0.334 0.246-0.094 0.475-0.217 0.686-0.369 0.211-0.141 0.369-0.369 0.475-0.686 0.059 0.129 0.117 0.182 0.176 0.158 0.059-0.012 0.117-0.041 0.176-0.088 0.070-0.035 0.135-0.064 0.193-0.088 0.059-0.012 0.117 0.041 0.176 0.158 0.117-0.352 0.305-0.633 0.563-0.844 0.27-0.211 0.563-0.398 0.879-0.563 0.328-0.152 0.656-0.305 0.984-0.457 0.328-0.141 0.615-0.316 0.861-0.527 0.258-0.211 0.451-0.469 0.58-0.773 0.129-0.316 0.158-0.721 0.088-1.213 0.105-0.070 0.176-0.158 0.211-0.264 0.035-0.117 0.059-0.234 0.070-0.351 0.023-0.117 0.053-0.223 0.088-0.316s0.111-0.158 0.229-0.193c-0.082-0.129-0.182-0.188-0.299-0.176s-0.24 0.047-0.369 0.105c-0.117 0.059-0.229 0.117-0.334 0.176s-0.193 0.070-0.264 0.035c-0.035 0.164-0.111 0.281-0.229 0.352-0.105 0.070-0.223 0.135-0.352 0.193-0.129 0.047-0.264 0.1-0.404 0.158s-0.252 0.152-0.334 0.281c-0.105-0.047-0.205-0.023-0.299 0.070-0.082 0.082-0.17 0.176-0.264 0.281-0.082 0.094-0.176 0.164-0.281 0.211s-0.229 0-0.369-0.141c-0.070 0.188-0.188 0.31-0.352 0.369-0.152 0.059-0.322 0.088-0.51 0.088s-0.381-0.012-0.58-0.035c-0.188-0.023-0.357-0.018-0.51 0.017l-0.299-0.299c-0.023 0.059-0.059 0.105-0.105 0.141-0.059 0.035-0.117 0.041-0.176 0.018-0.094-0.199-0.182-0.41-0.264-0.633-0.094-0.234-0.152-0.463-0.176-0.685-0.035-0.234-0.018-0.457 0.053-0.668 0.070-0.223 0.211-0.416 0.422-0.58 0.328-0.598 0.756-1.066 1.283-1.406 0.059 0.047 0.123 0.064 0.193 0.053 0.070-0.023 0.141-0.053 0.211-0.088 0.082-0.047 0.158-0.094 0.229-0.141 0.070-0.059 0.135-0.094 0.193-0.105 0.035-0.129 0.1-0.252 0.193-0.369 0.105-0.117 0.217-0.223 0.334-0.316 0.129-0.094 0.258-0.176 0.387-0.246 0.141-0.082 0.27-0.152 0.387-0.211 0.223-0.105 0.428-0.234 0.615-0.387 0.199-0.164 0.398-0.316 0.598-0.457 0.199-0.152 0.404-0.281 0.615-0.387s0.451-0.158 0.721-0.158l0.316 0.281c-0.199 0.117-0.375 0.264-0.527 0.439-0.141 0.164-0.287 0.334-0.439 0.51-0.152 0.164-0.316 0.316-0.492 0.457s-0.392 0.234-0.65 0.281c-0.211 0.41-0.498 0.762-0.861 1.055-0.352 0.281-0.715 0.545-1.090 0.791 0 0.176-0.053 0.316-0.158 0.422s-0.229 0.199-0.369 0.281c-0.141 0.082-0.281 0.158-0.422 0.229-0.141 0.059-0.258 0.141-0.352 0.246-0.082 0.094-0.123 0.217-0.123 0.369 0 0.141 0.076 0.328 0.229 0.563 0.141-0.070 0.311-0.117 0.51-0.141s0.393-0.053 0.58-0.088c0.188-0.047 0.352-0.111 0.492-0.193 0.152-0.094 0.258-0.234 0.316-0.422 0.164-0.141 0.34-0.229 0.527-0.264s0.381-0.041 0.58-0.018c0.387-0.422 0.773-0.809 1.16-1.16 0.398-0.363 0.773-0.732 1.125-1.107s0.674-0.773 0.967-1.195c0.305-0.434 0.568-0.932 0.791-1.494 0.234-0.070 0.445-0.041 0.633 0.088s0.322 0.293 0.404 0.492c-0.023 0.141-0.064 0.275-0.123 0.404-0.047 0.117-0.094 0.234-0.141 0.352-0.035 0.105-0.064 0.223-0.088 0.352-0.012 0.129 0.012 0.275 0.070 0.439-0.094-0.023-0.17 0.006-0.229 0.088-0.047 0.082-0.1 0.152-0.158 0.211 0.035 0.152 0.029 0.293-0.017 0.422-0.047 0.117-0.105 0.234-0.176 0.352-0.070 0.105-0.135 0.223-0.193 0.351-0.047 0.129-0.059 0.27-0.035 0.422-0.164 0.305-0.287 0.627-0.369 0.967-0.070 0.328-0.117 0.662-0.141 1.002l0.316 0.281c0.152-0.223 0.34-0.381 0.563-0.475 0.234-0.094 0.469-0.17 0.703-0.229 0.234-0.070 0.463-0.146 0.686-0.229 0.223-0.094 0.416-0.252 0.58-0.475 0.070-0.34 0.217-0.58 0.439-0.721 0.223-0.152 0.457-0.281 0.703-0.387s0.48-0.223 0.703-0.351c0.234-0.141 0.398-0.363 0.492-0.668h0.439c-0.023 0.059-0.012 0.111 0.035 0.158s0.088 0.088 0.123 0.123zM22.196 19.76c-0.117 0.070-0.246 0.135-0.387 0.193s-0.281 0.123-0.422 0.193-0.27 0.152-0.387 0.246c-0.117 0.094-0.205 0.211-0.264 0.352-0.129-0.070-0.252-0.076-0.369-0.017-0.105 0.070-0.211 0.146-0.316 0.229-0.105 0.094-0.217 0.17-0.334 0.229-0.105 0.059-0.223 0.053-0.352-0.018-0.223 0.141-0.434 0.293-0.633 0.457-0.211 0.164-0.422 0.322-0.633 0.475-0.211 0.164-0.428 0.311-0.65 0.439-0.234 0.141-0.48 0.246-0.738 0.316-0.129 0.211-0.299 0.375-0.51 0.492-0.211 0.129-0.422 0.252-0.633 0.369-0.223 0.117-0.422 0.258-0.598 0.422s-0.287 0.393-0.334 0.686c-0.363 0.234-0.609 0.533-0.738 0.896-0.141 0.375-0.217 0.767-0.229 1.178-0.012 0.422 0.006 0.844 0.053 1.266 0.047 0.434 0.070 0.826 0.070 1.178 0.152 0.176 0.305 0.299 0.457 0.369s0.31 0.105 0.475 0.105c0.164 0 0.334-0.023 0.51-0.070 0.164-0.035 0.346-0.070 0.545-0.105 0.047-0.176 0.135-0.293 0.264-0.352 0.117-0.047 0.246-0.082 0.387-0.105 0.129-0.023 0.252-0.059 0.369-0.105 0.105-0.035 0.164-0.129 0.176-0.281l0.158 0.141c0.012-0.188 0.064-0.346 0.158-0.475 0.094-0.117 0.205-0.229 0.334-0.334s0.27-0.205 0.422-0.299c0.141-0.094 0.264-0.199 0.369-0.316-0.023-0.223 0.018-0.41 0.123-0.563s0.223-0.293 0.352-0.422 0.246-0.27 0.352-0.422c0.094-0.152 0.129-0.346 0.105-0.58 0.117-0.047 0.199-0.123 0.246-0.229s0.094-0.205 0.141-0.299c0.047-0.094 0.105-0.164 0.176-0.211 0.082-0.047 0.205-0.035 0.369 0.035-0.164-0.129-0.234-0.229-0.211-0.299 0.035-0.070 0.094-0.135 0.176-0.193 0.082-0.047 0.158-0.105 0.229-0.176s0.070-0.176 0-0.316c0.281-0.117 0.463-0.287 0.545-0.51s0.141-0.463 0.176-0.721c0.047-0.246 0.111-0.492 0.193-0.738 0.082-0.234 0.264-0.422 0.545-0.563-0.023-0.211 0.012-0.398 0.105-0.563 0.105-0.152 0.205-0.299 0.299-0.439 0.105-0.141 0.176-0.287 0.211-0.439 0.047-0.152 0.006-0.334-0.123-0.545l-0.229 0.439zM42.851 11.48c0.047 0.176 0.029 0.328-0.053 0.457-0.082 0.117-0.193 0.223-0.334 0.316-0.129 0.094-0.275 0.182-0.44 0.264-0.152 0.070-0.281 0.152-0.387 0.246-0.527 0.117-1.008 0.205-1.441 0.264-0.422 0.047-0.891 0.111-1.406 0.193-0.152 0.023-0.299 0.023-0.439 0-0.129-0.035-0.264-0.047-0.404-0.035-0.082 0-0.158 0-0.228 0-0.070-0.012-0.141-0.012-0.211 0-0.27 0.024-0.445 0.117-0.527 0.281-0.082 0.152-0.152 0.334-0.211 0.545-0.047 0.199-0.111 0.393-0.193 0.58-0.070 0.176-0.228 0.299-0.475 0.369-0.023 0.059-0.018 0.111 0.018 0.158 0.047 0.047 0.082 0.088 0.105 0.123-0.199 0.059-0.334 0.164-0.404 0.316-0.059 0.152-0.111 0.305-0.158 0.457s-0.117 0.281-0.211 0.387c-0.082 0.105-0.246 0.141-0.492 0.105-0.363 0.387-0.791 0.697-1.283 0.932-0.492 0.246-1.002 0.404-1.529 0.475-0.094-0.047-0.188-0.105-0.281-0.176-0.082-0.070-0.17-0.135-0.264-0.193-0.082-0.059-0.176-0.105-0.281-0.141-0.094-0.023-0.205-0.023-0.334 0-0.012-0.246-0.059-0.475-0.141-0.686-0.094-0.211-0.211-0.41-0.352-0.598-0.023-0.211 0.006-0.404 0.088-0.58 0.070-0.188 0.146-0.369 0.229-0.545s0.152-0.352 0.211-0.527c0.047-0.188 0.035-0.399-0.035-0.633 0.117-0.070 0.193-0.152 0.229-0.246 0.047-0.094 0.076-0.188 0.088-0.281 0.023-0.105 0.053-0.199 0.088-0.281 0.035-0.094 0.117-0.17 0.246-0.229-0.094-0.281-0.082-0.486 0.035-0.615 0.129-0.141 0.281-0.264 0.457-0.369s0.34-0.223 0.492-0.352c0.152-0.129 0.211-0.322 0.176-0.58 0.070-0.070 0.152-0.129 0.246-0.176s0.182-0.088 0.264-0.123c0.094-0.047 0.182-0.094 0.264-0.141s0.158-0.111 0.229-0.193c-0.082-0.059-0.123-0.117-0.123-0.176 0.012-0.059 0.029-0.117 0.053-0.176 0.023-0.070 0.047-0.141 0.070-0.211 0.035-0.070 0.035-0.141 0-0.211 0.316 0.047 0.592 0.006 0.826-0.123 0.246-0.141 0.475-0.281 0.686-0.422 0.223-0.141 0.445-0.24 0.668-0.299s0.48 0.012 0.773 0.211c0.023 0.082 0.059 0.205 0.105 0.369 0.059 0.152 0.111 0.311 0.158 0.475 0.059 0.164 0.111 0.322 0.158 0.475s0.076 0.264 0.088 0.334c0 0.059 0 0.152 0 0.281s0 0.27 0 0.422c0 0.141 0 0.275 0 0.404s0 0.229 0 0.299c0.34 0.199 0.68 0.322 1.020 0.369 0.34 0.035 0.68-0.047 1.020-0.246 0.129 0.117 0.252 0.152 0.369 0.105 0.117-0.059 0.229-0.123 0.334-0.193 0.117-0.070 0.234-0.105 0.352-0.105 0.117-0.012 0.234 0.082 0.352 0.281 0.164-0.152 0.334-0.246 0.51-0.281 0.176-0.047 0.357-0.070 0.545-0.070 0.188-0.012 0.369-0.029 0.545-0.053 0.188-0.024 0.369-0.1 0.545-0.229zM36.101 11.779c0-0.176 0.029-0.363 0.088-0.563s0.105-0.393 0.141-0.58c0.035-0.199 0.029-0.387-0.018-0.563-0.035-0.176-0.147-0.334-0.334-0.475-0.129 0.070-0.234 0.17-0.316 0.299-0.082 0.117-0.164 0.24-0.246 0.369-0.082 0.117-0.182 0.217-0.299 0.299-0.105 0.082-0.246 0.105-0.422 0.070-0.059 0.141-0.059 0.258 0 0.352 0.059 0.082 0.129 0.164 0.211 0.246 0.082 0.070 0.158 0.146 0.228 0.229 0.082 0.082 0.111 0.188 0.088 0.316 0.047 0.035 0.111 0.070 0.193 0.105 0.082 0.023 0.164 0.041 0.246 0.053 0.094 0 0.182-0.012 0.264-0.035s0.141-0.064 0.176-0.123zM35.977 13.185c-0.234 0-0.439-0.053-0.615-0.158-0.164-0.117-0.334-0.246-0.51-0.387-0.164-0.141-0.34-0.27-0.527-0.387-0.176-0.129-0.393-0.205-0.65-0.229-0.105 0.141-0.228 0.275-0.369 0.404-0.141 0.117-0.264 0.246-0.369 0.387s-0.182 0.293-0.228 0.457c-0.035 0.164-0.006 0.352 0.088 0.563-0.27 0.129-0.451 0.316-0.545 0.563-0.094 0.234-0.158 0.492-0.193 0.774-0.023 0.281-0.047 0.563-0.070 0.844s-0.1 0.533-0.229 0.756l0.387-0.264c0.047 0.023 0.082 0.059 0.105 0.105 0.035 0.047 0.041 0.1 0.018 0.158 0.094-0.094 0.199-0.164 0.316-0.211 0.117-0.058 0.234-0.1 0.352-0.123 0.129-0.035 0.252-0.064 0.369-0.088 0.129-0.023 0.252-0.059 0.369-0.105 0.293 0.164 0.504 0.199 0.633 0.105s0.234-0.234 0.316-0.422c0.082-0.188 0.17-0.381 0.264-0.58 0.094-0.211 0.246-0.34 0.457-0.387l-0.123-0.123c0.199-0.246 0.375-0.498 0.527-0.756 0.164-0.27 0.24-0.568 0.228-0.896z"></path>
</symbol>
</defs>
</svg>
